<svg width="956" height="691" xmlns="http://www.w3.org/2000/svg"><g fill="none" fill-rule="evenodd"><path fill="#1D2C38" d="M0 0h956v691H0z"/><path fill="#243646" d="M732.46 0l-90.938 257.862h-82.589L500.559 423.38l-32.294 91.575L406.181 691h264.655l-90.761-257.358h358.224L785.369 0zM385.946 0l-88.763 251.695-1.905 5.398-.27.769H558.5l-.27-.769-21.76-61.705L467.561 0zM0 0v514.716h116.19L56.196 684.833l-1.904 5.399-.27.768h263.49l-.27-.768-21.76-61.704-68.487-194.197h129.814l-1.93-5.476-1.93-5.475-29.188-82.76-29.185-82.758h-82.591L121.047 0z"/></g></svg>